<svg width="29" height="29" viewBox="0 0 29 29" fill="none" xmlns="http://www.w3.org/2000/svg">
<path d="M26.2857 11.5536H17.4464V2.71429C17.4464 1.62963 16.5668 0.75 15.4821 0.75H13.5179C12.4332 0.75 11.5536 1.62963 11.5536 2.71429V11.5536H2.71429C1.62963 11.5536 0.75 12.4332 0.75 13.5179V15.4821C0.75 16.5668 1.62963 17.4464 2.71429 17.4464H11.5536V26.2857C11.5536 27.3704 12.4332 28.25 13.5179 28.25H15.4821C16.5668 28.25 17.4464 27.3704 17.4464 26.2857V17.4464H26.2857C27.3704 17.4464 28.25 16.5668 28.25 15.4821V13.5179C28.25 12.4332 27.3704 11.5536 26.2857 11.5536Z" fill="#74E6AC"/>
</svg>
