<svg width="178" height="48" viewBox="0 0 178 48" fill="none" xmlns="http://www.w3.org/2000/svg">
<g clip-path="url(#clip0_50_22)">
<path fill-rule="evenodd" clip-rule="evenodd" d="M19.64 4.77497H9.27C6.29 4.77497 3.98 7.32497 4.26 10.295C4.52 12.965 6.79 15.025 9.47 15.025H25.65C30.91 15.025 34.91 19.255 34.91 24.475C34.91 29.465 30.85 33.535 25.85 33.535H2.01C0.9 33.535 0 32.625 0 31.515C0 30.415 0.9 29.505 2.01 29.505H25.85C28.62 29.505 30.89 27.245 30.89 24.475C30.89 21.485 28.69 19.045 25.65 19.045H9.47C4.71 19.045 0.71 15.405 0.26 10.675C-0.26 5.33497 3.91 0.744971 9.27 0.744971H19.64C20.75 0.744971 21.65 1.65497 21.65 2.76497C21.65 3.87497 20.75 4.77497 19.64 4.77497V4.77497ZM72.17 0.624971C72.95 -0.165029 74.23 -0.165029 75.01 0.624971L88.84 14.455L102.67 0.624971C103.46 -0.165029 104.74 -0.165029 105.52 0.624971C106.3 1.40497 106.3 2.68497 105.52 3.46497L75.33 33.655C74.55 34.445 73.27 34.445 72.49 33.655C71.7 32.875 71.7 31.595 72.49 30.815L86 17.305L72.17 3.46497C71.38 2.68497 71.38 1.40497 72.17 0.624971V0.624971ZM40.52 0.894971C41.62 0.894971 42.53 1.80497 42.53 2.91497V6.86497C45.51 3.22497 50.04 0.894971 55.11 0.894971C64.08 0.894971 71.35 8.17497 71.35 17.145C71.35 26.115 64.08 33.385 55.11 33.385C50.04 33.385 45.51 31.055 42.53 27.415V45.955C42.53 47.065 41.62 47.965 40.52 47.965C39.41 47.965 38.5 47.065 38.5 45.955V2.91497C38.5 1.80497 39.41 0.894971 40.52 0.894971V0.894971ZM55.11 4.92497C61.86 4.92497 67.32 10.395 67.32 17.145C67.32 23.885 61.86 29.355 55.11 29.355C48.36 29.355 42.89 23.885 42.89 17.145C42.89 10.395 48.36 4.92497 55.11 4.92497V4.92497ZM32.91 0.744971C34.03 0.744971 34.93 1.65497 34.93 2.76497C34.93 3.87497 34.03 4.77497 32.91 4.77497C31.8 4.77497 30.9 3.87497 30.9 2.76497C30.9 1.65497 31.8 0.744971 32.91 0.744971V0.744971ZM26 0.744971C27.12 0.744971 28.02 1.65497 28.02 2.76497C28.02 3.87497 27.12 4.77497 26 4.77497C24.89 4.77497 23.99 3.87497 23.99 2.76497C23.99 1.65497 24.89 0.744971 26 0.744971V0.744971Z" fill="#5C90FC"/>
<path fill-rule="evenodd" clip-rule="evenodd" d="M140.04 16.0049C140.04 17.1049 139.14 18.0149 138.03 18.0149H122.05V31.5749C122.05 32.6849 121.14 33.5949 120.03 33.5949C118.93 33.5949 118.02 32.6849 118.02 31.5749V2.04491C118.02 0.944912 118.93 0.0349121 120.03 0.0349121H138.03C139.14 0.0349121 140.05 0.944912 140.05 2.04491C140.05 3.15491 139.14 4.06491 138.03 4.06491H122.05V13.9849H138.03C139.14 13.9849 140.05 14.8949 140.05 16.0049H140.04V16.0049Z" fill="#FEFEFE"/>
<path fill-rule="evenodd" clip-rule="evenodd" d="M147.22 0.624971C146.44 -0.165029 145.16 -0.165029 144.38 0.624971C143.59 1.40497 143.59 2.68497 144.38 3.46497L158.05 17.145L144.38 30.815C143.59 31.595 143.59 32.875 144.38 33.655C145.16 34.445 146.44 34.445 147.22 33.655L160.89 19.985L174.57 33.655C175.35 34.445 176.63 34.445 177.41 33.655C178.2 32.875 178.2 31.595 177.41 30.815L163.74 17.145L177.41 3.46497C178.2 2.68497 178.2 1.40497 177.41 0.624971C176.63 -0.165029 175.35 -0.165029 174.57 0.624971L160.89 14.295L147.22 0.624971V0.624971Z" fill="#FEFEFE"/>
</g>
<defs>
<clipPath id="clip0_50_22">
<rect width="178" height="48" fill="white"/>
</clipPath>
</defs>
</svg>
